<svg width="100" height="100" viewBox="0 0 100 100" fill="none" xmlns="http://www.w3.org/2000/svg">
<path d="M50 1.23774C22.3781 1.23774 0 23.6346 0 51.2377C0 73.3409 14.325 92.0752 34.1781 98.6846C36.6875 99.1565 37.5938 97.6096 37.5938 96.2721C37.5938 95.0846 37.5656 91.944 37.5469 87.7752C23.6313 90.7878 20.7 81.0534 20.7 81.0534C18.4219 75.2909 15.1344 73.744 15.1344 73.744C10.6094 70.6534 15.4938 70.719 15.4938 70.719C20.5063 71.0596 23.1438 75.8596 23.1438 75.8596C27.6031 83.5096 34.8438 81.2971 37.7094 80.0096C38.1469 76.7878 39.45 74.5721 40.8688 73.3378C29.7688 72.0846 18.0969 67.7878 18.0969 48.6284C18.0969 43.1565 20.0344 38.7002 23.2375 35.2002C22.6844 33.9471 20.9906 28.8534 23.6781 21.9659C23.6781 21.9659 27.8625 20.6315 37.4281 27.094C41.4313 25.9846 45.6813 25.4315 49.9281 25.4034C54.1781 25.4315 58.425 25.9877 62.4281 27.094C71.9375 20.6315 76.1188 21.9659 76.1188 21.9659C78.8031 28.8534 77.1094 33.944 76.6219 35.2002C79.7938 38.7002 81.7313 43.1596 81.7313 48.6284C81.7313 67.8315 70.0438 72.0659 58.9313 73.2878C60.6688 74.7846 62.2969 77.8627 62.2969 82.5346C62.2969 89.2221 62.2344 94.6096 62.2344 96.2377C62.2344 97.5378 63.1094 99.1003 65.6844 98.5971C85.6844 92.0565 99.9938 73.3065 99.9938 51.2346C99.9938 23.6315 77.6156 1.23462 49.9938 1.23462L50 1.23774Z" fill="black"/>
</svg>
