<svg width="100" height="100" viewBox="0 0 100 100" fill="none" xmlns="http://www.w3.org/2000/svg">
<path d="M50 100C77.6142 100 100 77.6142 100 50C100 22.3858 77.6142 0 50 0C22.3858 0 0 22.3858 0 50C0 77.6142 22.3858 100 50 100Z" fill="#4D76A1"/>
<path fill-rule="evenodd" clip-rule="evenodd" d="M48.1113 71.9296H52.0357C52.0357 71.9296 53.2211 71.7994 53.8263 71.147C54.3834 70.548 54.3656 69.4232 54.3656 69.4232C54.3656 69.4232 54.2889 64.1574 56.7329 63.382C59.142 62.6182 62.2357 68.4713 65.5148 70.7218C67.9944 72.4251 69.8786 72.0517 69.8786 72.0517L78.6463 71.9296C78.6463 71.9296 83.2329 71.647 81.0582 68.0408C80.8799 67.7458 79.7916 65.3732 74.5392 60.4978C69.0417 55.3951 69.7779 56.2204 76.4002 47.3939C80.4334 42.0185 82.0457 38.7367 81.5421 37.3312C81.0617 35.9924 78.0955 36.3463 78.0955 36.3463L68.2235 36.4078C68.2235 36.4078 67.4917 36.308 66.9489 36.6324C66.4186 36.9506 66.0772 37.6922 66.0772 37.6922C66.0772 37.6922 64.5148 41.8518 62.4309 45.3894C58.035 52.854 56.2774 53.248 55.559 52.7845C53.8878 51.7042 54.305 48.4448 54.305 46.1292C54.305 38.8954 55.4022 35.8793 52.1685 35.0985C51.0954 34.8391 50.3057 34.668 47.5614 34.6403C44.039 34.6038 41.0576 34.651 39.3695 35.4782C38.2465 36.0281 37.3801 37.2536 37.9078 37.324C38.5602 37.4114 40.038 37.7225 40.8214 38.7893C41.833 40.1655 41.7974 43.2565 41.7974 43.2565C41.7974 43.2565 42.3785 51.772 40.4399 52.8299C39.1092 53.5555 37.2839 52.0741 33.3648 45.302C31.3567 41.8331 29.8406 37.9988 29.8406 37.9988C29.8406 37.9988 29.5483 37.2822 29.0269 36.8989C28.3941 36.4345 27.5099 36.2866 27.5099 36.2866L18.129 36.3481C18.129 36.3481 16.7207 36.3873 16.2038 36.9996C15.7439 37.5442 16.1672 38.6708 16.1672 38.6708C16.1672 38.6708 23.5115 55.8532 31.8273 64.5122C39.4524 72.451 48.1113 71.9296 48.1113 71.9296Z" fill="white"/>
</svg>
